<svg xmlns="http://www.w3.org/2000/svg" viewBox="0 0 240 240" role="img" aria-label="Glowing comet with a long tail">
  <defs>
    <radialGradient id="core" cx="50%" cy="50%" r="50%">
      <stop offset="0%" stop-color="#fff7d6"/>
      <stop offset="45%" stop-color="#8deaff"/>
      <stop offset="100%" stop-color="#2468ff"/>
    </radialGradient>
    <linearGradient id="tail" x1="0" y1="0.5" x2="1" y2="0.5">
      <stop offset="0%" stop-color="#aef6ff" stop-opacity="0"/>
      <stop offset="45%" stop-color="#88d6ff" stop-opacity="0.9"/>
      <stop offset="100%" stop-color="#ffffff" stop-opacity="1"/>
    </linearGradient>
  </defs>

  <rect width="240" height="240" fill="none"/>
  <path d="M22 148 C65 116, 95 92, 140 84 C110 105, 90 128, 62 165 C50 178, 33 171, 22 148 Z" fill="url(#tail)"/>
  <circle cx="162" cy="92" r="38" fill="url(#core)"/>
  <circle cx="174" cy="78" r="8" fill="#ffffff" opacity="0.95"/>
  <path d="M168 36 L173 49 L186 54 L173 59 L168 72 L163 59 L150 54 L163 49 Z" fill="#b8ffff"/>
  <path d="M72 58 L76 67 L85 71 L76 75 L72 84 L68 75 L59 71 L68 67 Z" fill="#d8f9ff" opacity="0.75"/>
</svg>
